    <svg id="fire" version="1.1" viewBox="-50 0 300 300" xmlns="http://www.w3.org/2000/svg" xmlns:xlink="http://www.w3.org/1999/xlink">
        <style>
            #left-flame,#right-flame, #center-flame { transform: scale(1); animation:crackle 1s infinite }
            #right-flame { animation-delay: 0.75s }
            #center-flame { animation-delay: 0.25s }        
            @keyframes crackle{
                0%{ transform: scale(1) }
                50%{ transform: scale(0.98) }
                100%{ transform: scale(1) }
            }
        </style>
        <defs>
            <linearGradient id="c">
                <stop stop-color="#7f0000" offset="0" />
                <stop stop-color="#7f5c00" stop-opacity=".49804" offset=".5" />
                <stop stop-color="#ff0" stop-opacity="0" offset="1" />
            </linearGradient>
            <linearGradient id="d">
                <stop stop-color="#af6800" offset="0" />
                <stop stop-color="#420000" offset="1" />
            </linearGradient>
            <linearGradient id="b" x1="1090.4" x2="1218" y1="515.71" y2="515.71" gradientUnits="userSpaceOnUse"
                xlink:href="#d" />
            <radialGradient id="a" cx="305.03" cy="25.324" r="16.518" gradientTransform="matrix(1 0 0 .90847 0 2.318)"
                gradientUnits="userSpaceOnUse" xlink:href="#c" />
        </defs>
        <g id="logs" transform="matrix(.78466 0 0 .81623 21.712 30.496)">
            <g transform="rotate(103.62 167.7 100.91)">
                <path transform="scale(.26458)"
                    d="m1152.9 39.848a61.582 55.867 0 0 0-61.316 51.58h-0.1133v1.8223a61.582 55.867 0 0 0-0.1523 2.4648 61.582 55.867 0 0 0 0.1523 2.4629v835.07a61.582 55.867 0 0 0-0.1523 2.4648 61.582 55.867 0 0 0 61.582 55.867 61.582 55.867 0 0 0 61.582-55.867 61.582 55.867 0 0 0-0.088-1.4297h2.791v-842.86h-2.8887a61.582 55.867 0 0 0-61.396-51.58z"
                    fill="url(#b)" />
                <ellipse cx="305.03" cy="25.324" rx="16.293" ry="14.782" fill="url(#a)" />
            </g>
            <g transform="rotate(251.73 235.3 255.06)">
                <path transform="scale(.26458)"
                    d="m1152.9 39.848a61.582 55.867 0 0 0-61.316 51.58h-0.1133v1.8223a61.582 55.867 0 0 0-0.1523 2.4648 61.582 55.867 0 0 0 0.1523 2.4629v835.07a61.582 55.867 0 0 0-0.1523 2.4648 61.582 55.867 0 0 0 61.582 55.867 61.582 55.867 0 0 0 61.582-55.867 61.582 55.867 0 0 0-0.088-1.4297h2.791v-842.86h-2.8887a61.582 55.867 0 0 0-61.396-51.58z"
                    fill="url(#b)" />
                <ellipse cx="305.03" cy="25.324" rx="16.293" ry="14.782" fill="url(#a)" />
            </g>
        </g>
        <g id="left-flame" transform="matrix(.78466 0 0 .81623 21.712 30.496)" fill-rule="evenodd">
            <path
                d="m40.254 129.02c-33.856-1.078-63.981 31.807-58.753 65.009 2.9114 26.892 26.549 49.876 54.114 51.39 23.724 2.6463 49.855-9.6373 58.171-32.629 8.2076-18.035 8.8851-41.785-6.7233-56.301-4.8135-4.4691-10.191-9.5746-6.4097-0.12974 1.0268 12.452-13.45 16.416-23.469 14.895-11.809-2.2397-23.47-10.495-27.529-21.912-2.3886-8.3488 3.9424-16.029 10.598-20.323z"
                fill="#ff9b00" fill-opacity=".8" stroke="#fff" stroke-width=".52917" />
            <path
                d="m42.614 180.61c21.61-0.53222 40.838 15.704 37.501 32.097-1.8583 13.277-16.945 24.625-34.54 25.372-15.143 1.3066-31.822-4.7581-37.129-16.109-5.2387-8.9041-5.6712-20.63 4.2913-27.797 3.0723-2.2065 6.505-4.7272 4.0912-0.0641-0.65542 6.1477 8.5852 8.1047 14.979 7.354 7.5374-1.1058 14.98-5.1815 17.571-10.818 1.5246-4.122-2.5164-7.9139-6.7647-10.034z"
                fill="#ff0" />
        </g>
        <g id="center-flame" transform="matrix(.78466 0 0 .81623 21.712 30.496)" fill-opacity=".8" fill-rule="evenodd">
            <path
                d="m99.03 55.185c-52.847-1.706-99.871 50.338-91.709 102.88 4.5445 42.56 41.441 78.933 84.469 81.33 37.032 4.1881 77.821-15.252 90.801-51.638 12.812-28.542 13.869-66.129-10.495-89.102-7.5135-7.0728-15.908-15.153-10.005-0.20532 1.6028 19.706-20.995 25.979-36.633 23.573-18.433-3.5445-36.635-16.609-42.971-34.678-3.7285-13.213 6.1539-25.367 16.543-32.163z"
                fill="#ff9b00" stroke="#fff" stroke-width=".52917" />
            <path
                d="m102.71 136.83c33.731-0.8423 63.745 24.853 58.536 50.796-2.9007 21.013-26.451 38.971-53.914 40.154-23.637 2.0678-49.671-7.5302-57.956-25.495-8.1773-14.092-8.8524-32.649 6.6985-43.992 4.7957-3.492 10.154-7.4812 6.3861-0.10137-1.0231 9.7294 13.401 12.827 23.382 11.638 11.765-1.75 23.384-8.2002 27.427-17.121 2.3798-6.5235-3.9279-12.524-10.559-15.88z"
                fill="#ff0" />
        </g>
        <g id="right-flame" transform="matrix(.78466 0 0 .81623 21.712 30.496)" fill-rule="evenodd">
            <path
                d="m140.66 133.65c-33.856-1.078-63.981 31.807-58.753 65.009 2.9114 26.892 26.549 49.876 54.114 51.39 23.724 2.6463 49.855-9.6373 58.171-32.629 8.2076-18.035 8.8851-41.785-6.7233-56.301-4.8135-4.4691-10.191-9.5746-6.4097-0.12974 1.0268 12.452-13.45 16.416-23.469 14.895-11.809-2.2397-23.47-10.495-27.529-21.912-2.3886-8.3488 3.9424-16.029 10.598-20.323z"
                fill="#ff9b00" fill-opacity=".8" stroke="#fff" stroke-width=".52917" />
            <path
                d="m143.02 185.24c21.61-0.53222 40.838 15.704 37.501 32.097-1.8583 13.277-16.945 24.625-34.54 25.372-15.143 1.3066-31.822-4.7581-37.129-16.109-5.2387-8.9041-5.6712-20.63 4.2913-27.797 3.0723-2.2065 6.505-4.7272 4.0912-0.0641-0.65542 6.1477 8.5852 8.1047 14.979 7.354 7.5374-1.1058 14.98-5.1815 17.571-10.818 1.5246-4.122-2.5164-7.9139-6.7647-10.034z"
                fill="#ff0" />
        </g>
    </svg>
